# Blender v2.77 (sub 0) OBJ File: 'room2.blend'
# www.blender.org
mtllib room2.mtl
o Plane_Plane.002
v 7.993509 0.000132 6.066082
v -8.006491 0.000136 -5.933918
v -8.006491 0.000132 6.066082
v -8.000000 2.000002 -6.000000
v -8.000000 -0.000002 6.000000
v -8.000000 1.999998 6.000000
v -7.700000 2.000002 -6.000000
v -8.000000 0.000002 -6.000001
v -7.700000 1.999998 6.000000
v -7.700000 0.000002 -6.000001
v -7.700000 -0.000002 6.000000
v 7.700000 2.000002 -6.000000
v 7.700000 -0.000002 6.000000
v 7.700000 1.999998 6.000000
v 8.000000 2.000002 -6.000000
v 7.700000 0.000002 -6.000001
v 8.000000 1.999998 6.000000
v 8.000000 0.000002 -6.000001
v 8.000000 -0.000002 6.000000
v -8.000000 1.999998 5.700000
v -8.000000 -0.000002 6.000000
v -8.000000 1.999998 6.000000
v 8.000000 1.999998 5.700000
v -8.000000 -0.000002 5.700000
v 8.000000 1.999998 6.000000
v 8.000000 -0.000002 5.700000
v 8.000000 -0.000002 6.000000
v -8.000000 2.000002 -6.000000
v -8.000000 0.000002 -5.700000
v -8.000000 2.000002 -5.699998
v 8.000000 2.000002 -6.000000
v -8.000000 0.000002 -6.000001
v 8.000000 2.000002 -5.699998
v 8.000000 0.000002 -6.000001
v 8.000000 0.000002 -5.700000
v -8.000000 2.000000 -0.300000
v -8.000000 0.000000 0.000000
v -8.000000 2.000000 0.000000
v -4.000000 2.000000 -0.300000
v -8.000000 0.000000 -0.300000
v -4.000000 2.000000 0.000000
v -4.000000 0.000000 -0.300000
v -4.000000 0.000000 0.000000
v -0.300000 2.000002 -6.000000
v -0.300000 0.000000 0.000000
v -0.300000 2.000000 0.000000
v 0.000000 2.000002 -6.000000
v -0.300000 0.000002 -6.000001
v 0.000000 2.000000 0.000000
v 0.000000 0.000002 -6.000001
v 0.000000 0.000000 0.000000
v -2.500000 2.000000 0.000000
v -2.500000 0.000000 -0.300000
v -2.500000 0.000000 0.000000
v 6.000000 2.000000 -0.300000
v -2.500000 2.000000 -0.300000
v 6.000000 2.000000 0.000000
v 6.000000 0.000000 -0.300000
v 6.000000 0.000000 0.000000
v -1.300000 2.000000 0.000000
v -1.300000 -0.000000 2.000000
v -1.300000 2.000000 2.000000
v -1.000000 2.000000 0.000000
v -1.300000 0.000000 0.000000
v -1.000000 2.000000 2.000000
v -1.000000 0.000000 0.000000
v -1.000000 -0.000000 2.000000
v -1.300000 1.999998 3.500001
v -1.300000 -0.000002 6.000000
v -1.300000 1.999998 6.000000
v -1.000000 1.999998 3.500001
v -1.300000 -0.000002 3.500001
v -1.000000 1.999998 6.000000
v -1.000000 -0.000002 3.500001
v -1.000000 -0.000002 6.000000
v 2.700000 2.000000 2.000000
v 2.700000 -0.000002 4.500000
v 2.700000 1.999998 4.500000
v 3.000000 2.000000 2.000000
v 2.700000 -0.000000 2.000000
v 3.000000 1.999998 4.500000
v 3.000000 -0.000000 2.000000
v 3.000000 -0.000002 4.500000
v 2.700000 2.000000 2.000000
v 2.700000 -0.000000 2.300000
v 2.700000 2.000000 2.300000
v 8.000000 2.000000 2.000000
v 2.700000 -0.000000 2.000000
v 8.000000 2.000000 2.300000
v 8.000000 -0.000000 2.000000
v 8.000000 -0.000000 2.300000
v 7.993509 0.000136 -5.933918
vt 1.000000 0.000000
vt 0.000000 1.000000
vt 0.000000 0.000000
vt 1.000000 0.000000
vt 0.000000 1.000000
vt 0.000000 0.000000
vt 1.000000 0.000000
vt 0.000000 1.000000
vt 0.000000 0.000000
vt 1.000000 0.000000
vt 0.000000 1.000000
vt 0.000000 0.000000
vt 1.000000 0.000000
vt 0.000000 1.000000
vt 0.000000 0.000000
vt 1.000000 0.000000
vt 0.000000 0.000000
vt 0.000000 1.000000
vt 1.000000 0.000000
vt 0.000000 1.000000
vt 0.000000 0.000000
vt 1.000000 0.000000
vt 0.000000 1.000000
vt 0.000000 0.000000
vt 1.000000 0.000000
vt 0.000000 1.000000
vt 0.000000 0.000000
vt 1.000000 0.000000
vt 0.000000 1.000000
vt 0.000000 0.000000
vt 1.000000 0.000000
vt 0.000000 0.000000
vt 0.000000 1.000000
vt 1.000000 0.000000
vt 0.000000 1.000000
vt 0.000000 0.000000
vt 1.000000 0.000000
vt 0.000000 1.000000
vt 0.000000 0.000000
vt 1.000000 0.000000
vt 0.000000 1.000000
vt 0.000000 0.000000
vt 1.000000 0.000000
vt 0.000000 1.000000
vt 0.000000 0.000000
vt 1.000000 0.000000
vt 0.000000 0.000000
vt 0.000000 1.000000
vt 1.000000 0.000000
vt 0.000000 1.000000
vt 0.000000 0.000000
vt 1.000000 0.000000
vt 0.000000 1.000000
vt 0.000000 0.000000
vt 1.000000 0.000000
vt 0.000000 1.000000
vt 0.000000 0.000000
vt 1.000000 0.000000
vt 0.000000 1.000000
vt 0.000000 0.000000
vt 1.000000 0.000000
vt 0.000000 0.000000
vt 0.000000 1.000000
vt 1.000000 0.000000
vt 0.000000 1.000000
vt 0.000000 0.000000
vt 1.000000 0.000000
vt 0.000000 1.000000
vt 0.000000 0.000000
vt 1.000000 0.000000
vt 0.000000 1.000000
vt 0.000000 0.000000
vt 1.000000 0.000000
vt 0.000000 1.000000
vt 0.000000 0.000000
vt 1.000000 0.000000
vt 0.000000 0.000000
vt 0.000000 1.000000
vt 1.000000 0.000000
vt 0.000000 1.000000
vt 0.000000 0.000000
vt 1.000000 0.000000
vt 0.000000 1.000000
vt 0.000000 0.000000
vt 1.000000 0.000000
vt 0.000000 1.000000
vt 0.000000 0.000000
vt 1.000000 0.000000
vt 0.000000 1.000000
vt 0.000000 0.000000
vt 1.000000 0.000000
vt 0.000000 0.000000
vt 0.000000 1.000000
vt 0.000000 0.000000
vt 1.000000 1.000000
vt 0.000000 1.000000
vt 1.000000 0.000000
vt 0.000000 1.000000
vt 0.000000 0.000000
vt 1.000000 0.000000
vt 0.000000 1.000000
vt 0.000000 0.000000
vt 0.000000 0.000000
vt 1.000000 1.000000
vt 0.000000 1.000000
vt 1.000000 0.000000
vt 0.000000 0.000000
vt 1.000000 1.000000
vt 0.000000 1.000000
vt 1.000000 0.000000
vt 0.000000 1.000000
vt 0.000000 0.000000
vt 1.000000 0.000000
vt 0.000000 1.000000
vt 0.000000 0.000000
vt 1.000000 0.000000
vt 0.000000 1.000000
vt 0.000000 0.000000
vt 1.000000 0.000000
vt 0.000000 1.000000
vt 0.000000 0.000000
vt 1.000000 0.000000
vt 0.000000 0.000000
vt 0.000000 1.000000
vt 1.000000 0.000000
vt 0.000000 1.000000
vt 0.000000 0.000000
vt 1.000000 0.000000
vt 0.000000 1.000000
vt 0.000000 0.000000
vt 1.000000 0.000000
vt 0.000000 1.000000
vt 0.000000 0.000000
vt 1.000000 0.000000
vt 0.000000 1.000000
vt 0.000000 0.000000
vt 1.000000 0.000000
vt 0.000000 0.000000
vt 0.000000 1.000000
vt 1.000000 0.000000
vt 0.000000 1.000000
vt 0.000000 0.000000
vt 1.000000 0.000000
vt 0.000000 1.000000
vt 0.000000 0.000000
vt 1.000000 0.000000
vt 0.000000 1.000000
vt 0.000000 0.000000
vt 1.000000 0.000000
vt 0.000000 1.000000
vt 0.000000 0.000000
vt 1.000000 0.000000
vt 0.000000 0.000000
vt 0.000000 1.000000
vt 1.000000 0.000000
vt 0.000000 1.000000
vt 0.000000 0.000000
vt 1.000000 0.000000
vt 0.000000 1.000000
vt 0.000000 0.000000
vt 1.000000 0.000000
vt 0.000000 1.000000
vt 0.000000 0.000000
vt 1.000000 0.000000
vt 0.000000 1.000000
vt 0.000000 0.000000
vt 1.000000 0.000000
vt 0.000000 0.000000
vt 0.000000 1.000000
vt 1.000000 1.000000
vt 1.000000 1.000000
vt 1.000000 1.000000
vt 1.000000 1.000000
vt 1.000000 1.000000
vt 1.000000 1.000000
vt 1.000000 1.000000
vt 1.000000 1.000000
vt 1.000000 1.000000
vt 1.000000 1.000000
vt 1.000000 1.000000
vt 1.000000 1.000000
vt 1.000000 1.000000
vt 1.000000 1.000000
vt 1.000000 1.000000
vt 1.000000 1.000000
vt 1.000000 1.000000
vt 1.000000 1.000000
vt 1.000000 1.000000
vt 1.000000 1.000000
vt 1.000000 1.000000
vt 1.000000 1.000000
vt 1.000000 1.000000
vt 1.000000 1.000000
vt 1.000000 1.000000
vt 1.000000 1.000000
vt 1.000000 1.000000
vt 1.000000 1.000000
vt 1.000000 1.000000
vt 1.000000 1.000000
vt 1.000000 1.000000
vt 1.000000 0.000000
vt 1.000000 1.000000
vt 1.000000 1.000000
vt 1.000000 0.000000
vt 1.000000 1.000000
vt 1.000000 1.000000
vt 1.000000 1.000000
vt 1.000000 1.000000
vt 1.000000 1.000000
vt 1.000000 1.000000
vt 1.000000 1.000000
vt 1.000000 1.000000
vt 1.000000 1.000000
vt 1.000000 1.000000
vt 1.000000 1.000000
vt 1.000000 1.000000
vt 1.000000 1.000000
vt 1.000000 1.000000
vt 1.000000 1.000000
vt 1.000000 1.000000
vt 1.000000 1.000000
vt 1.000000 1.000000
vt 1.000000 1.000000
vt 1.000000 1.000000
vn 0.000000 1.000000 0.000000
vn -1.000000 -0.000000 0.000000
vn 0.000000 0.000000 -1.000000
vn 1.000000 0.000000 0.000000
vn 0.000000 -0.000000 1.000000
vn 0.000000 -1.000000 -0.000000
usemtl Material.001
s 1
f 1/1/1 2/2/1 3/3/1
f 4/4/2 5/5/2 6/6/2
f 7/7/3 8/8/3 4/9/3
f 9/10/4 10/11/4 7/12/4
f 6/13/5 11/14/5 9/15/5
f 8/16/6 11/14/6 5/17/6
f 7/7/1 6/18/1 9/15/1
f 12/19/2 13/20/2 14/21/2
f 15/22/3 16/23/3 12/24/3
f 17/25/4 18/26/4 15/27/4
f 14/28/5 19/29/5 17/30/5
f 16/31/6 19/29/6 13/32/6
f 15/22/1 14/33/1 17/30/1
f 20/34/2 21/35/2 22/36/2
f 23/37/3 24/38/3 20/39/3
f 25/40/4 26/41/4 23/42/4
f 22/43/5 27/44/5 25/45/5
f 24/46/6 27/44/6 21/47/6
f 23/37/1 22/48/1 25/45/1
f 28/49/2 29/50/2 30/51/2
f 31/52/3 32/53/3 28/54/3
f 33/55/4 34/56/4 31/57/4
f 30/58/5 35/59/5 33/60/5
f 32/61/6 35/59/6 29/62/6
f 31/52/1 30/63/1 33/60/1
f 36/64/2 37/65/2 38/66/2
f 39/67/3 40/68/3 36/69/3
f 41/70/4 42/71/4 39/72/4
f 38/73/5 43/74/5 41/75/5
f 40/76/6 43/74/6 37/77/6
f 39/67/1 38/78/1 41/75/1
f 44/79/2 45/80/2 46/81/2
f 47/82/3 48/83/3 44/84/3
f 49/85/4 50/86/4 47/87/4
f 46/88/5 51/89/5 49/90/5
f 48/91/6 51/89/6 45/92/6
f 47/82/1 46/93/1 49/90/1
f 52/94/2 53/95/2 54/96/2
f 55/97/3 53/98/3 56/99/3
f 57/100/4 58/101/4 55/102/4
f 57/103/5 54/104/5 59/105/5
f 53/106/6 59/105/6 54/107/6
f 57/103/1 56/108/1 52/109/1
f 60/110/2 61/111/2 62/112/2
f 63/113/3 64/114/3 60/115/3
f 65/116/4 66/117/4 63/118/4
f 62/119/5 67/120/5 65/121/5
f 64/122/6 67/120/6 61/123/6
f 63/113/1 62/124/1 65/121/1
f 68/125/2 69/126/2 70/127/2
f 71/128/3 72/129/3 68/130/3
f 73/131/4 74/132/4 71/133/4
f 70/134/5 75/135/5 73/136/5
f 72/137/6 75/135/6 69/138/6
f 71/128/1 70/139/1 73/136/1
f 76/140/2 77/141/2 78/142/2
f 79/143/3 80/144/3 76/145/3
f 81/146/4 82/147/4 79/148/4
f 78/149/5 83/150/5 81/151/5
f 80/152/6 83/150/6 77/153/6
f 79/143/1 78/154/1 81/151/1
f 84/155/2 85/156/2 86/157/2
f 87/158/3 88/159/3 84/160/3
f 89/161/4 90/162/4 87/163/4
f 86/164/5 91/165/5 89/166/5
f 88/167/6 91/165/6 85/168/6
f 87/158/1 86/169/1 89/166/1
f 1/1/1 92/170/1 2/2/1
f 4/4/2 8/171/2 5/5/2
f 7/7/3 10/172/3 8/8/3
f 9/10/4 11/173/4 10/11/4
f 6/13/5 5/174/5 11/14/5
f 8/16/6 10/172/6 11/14/6
f 7/7/1 4/175/1 6/18/1
f 12/19/2 16/176/2 13/20/2
f 15/22/3 18/177/3 16/23/3
f 17/25/4 19/178/4 18/26/4
f 14/28/5 13/179/5 19/29/5
f 16/31/6 18/177/6 19/29/6
f 15/22/1 12/180/1 14/33/1
f 20/34/2 24/181/2 21/35/2
f 23/37/3 26/182/3 24/38/3
f 25/40/4 27/183/4 26/41/4
f 22/43/5 21/184/5 27/44/5
f 24/46/6 26/182/6 27/44/6
f 23/37/1 20/185/1 22/48/1
f 28/49/2 32/186/2 29/50/2
f 31/52/3 34/187/3 32/53/3
f 33/55/4 35/188/4 34/56/4
f 30/58/5 29/189/5 35/59/5
f 32/61/6 34/187/6 35/59/6
f 31/52/1 28/190/1 30/63/1
f 36/64/2 40/191/2 37/65/2
f 39/67/3 42/192/3 40/68/3
f 41/70/4 43/193/4 42/71/4
f 38/73/5 37/194/5 43/74/5
f 40/76/6 42/192/6 43/74/6
f 39/67/1 36/195/1 38/78/1
f 44/79/2 48/196/2 45/80/2
f 47/82/3 50/197/3 48/83/3
f 49/85/4 51/198/4 50/86/4
f 46/88/5 45/199/5 51/89/5
f 48/91/6 50/197/6 51/89/6
f 47/82/1 44/200/1 46/93/1
f 52/94/2 56/201/2 53/95/2
f 55/97/3 58/202/3 53/98/3
f 57/100/4 59/203/4 58/101/4
f 57/103/5 52/204/5 54/104/5
f 53/106/6 58/202/6 59/105/6
f 57/103/1 55/97/1 56/108/1
f 60/110/2 64/205/2 61/111/2
f 63/113/3 66/206/3 64/114/3
f 65/116/4 67/207/4 66/117/4
f 62/119/5 61/208/5 67/120/5
f 64/122/6 66/206/6 67/120/6
f 63/113/1 60/209/1 62/124/1
f 68/125/2 72/210/2 69/126/2
f 71/128/3 74/211/3 72/129/3
f 73/131/4 75/212/4 74/132/4
f 70/134/5 69/213/5 75/135/5
f 72/137/6 74/211/6 75/135/6
f 71/128/1 68/214/1 70/139/1
f 76/140/2 80/215/2 77/141/2
f 79/143/3 82/216/3 80/144/3
f 81/146/4 83/217/4 82/147/4
f 78/149/5 77/218/5 83/150/5
f 80/152/6 82/216/6 83/150/6
f 79/143/1 76/219/1 78/154/1
f 84/155/2 88/220/2 85/156/2
f 87/158/3 90/221/3 88/159/3
f 89/161/4 91/222/4 90/162/4
f 86/164/5 85/223/5 91/165/5
f 88/167/6 90/221/6 91/165/6
f 87/158/1 84/224/1 86/169/1
