# Blender v2.77 (sub 0) OBJ File: ''
# www.blender.org
mtllib room-kopia.mtl
o Plane_Plane.002
v -8.006491 0.000133 6.066082
v 7.993509 0.000133 6.066082
v 7.993509 0.000135 -5.933918
v -8.006491 0.000135 -5.933918
v -8.000000 1.999999 6.000000
v -8.000000 2.000001 -6.000000
v -8.000000 0.000001 -6.000001
v -8.000000 -0.000001 6.000000
v -7.700000 2.000001 -6.000000
v -7.700000 0.000001 -6.000001
v -7.700000 1.999999 6.000000
v -7.700000 -0.000001 6.000000
v 7.700000 1.999999 6.000000
v 7.700000 2.000001 -6.000000
v 7.700000 0.000001 -6.000001
v 7.700000 -0.000001 6.000000
v 8.000000 2.000001 -6.000000
v 8.000000 0.000001 -6.000001
v 8.000000 1.999999 6.000000
v 8.000000 -0.000001 6.000000
v -8.000000 1.999999 6.000000
v -8.000000 1.999999 5.700000
v -8.000000 -0.000001 5.700000
v -8.000000 -0.000001 6.000000
v 8.000000 1.999999 5.700000
v 8.000000 -0.000001 5.700000
v 8.000000 1.999999 6.000000
v 8.000000 -0.000001 6.000000
v -8.000000 2.000001 -5.699999
v -8.000000 2.000001 -6.000000
v -8.000000 0.000001 -6.000001
v -8.000000 0.000001 -5.700000
v 8.000000 2.000001 -6.000000
v 8.000000 0.000001 -6.000001
v 8.000000 2.000001 -5.699999
v 8.000000 0.000001 -5.700000
v -8.000000 2.000000 0.000000
v -8.000000 2.000000 -0.300000
v -8.000000 0.000000 -0.300000
v -8.000000 0.000000 0.000000
v -4.000000 2.000000 -0.300000
v -4.000000 0.000000 -0.300000
v -4.000000 2.000000 0.000000
v -4.000000 0.000000 0.000000
v -0.300000 2.000000 0.000000
v -0.300000 2.000001 -6.000000
v -0.300000 0.000001 -6.000001
v -0.300000 0.000000 0.000000
v 0.000000 2.000001 -6.000000
v 0.000000 0.000001 -6.000001
v 0.000000 2.000000 0.000000
v 0.000000 0.000000 0.000000
v -2.544583 1.855544 0.077997
v -2.530148 1.902317 -0.247257
v -2.500000 0.000000 -0.300000
v -2.500000 0.000000 0.000000
v 6.000000 2.000000 -0.300000
v 6.000000 0.000000 -0.300000
v 6.000000 2.000000 0.000000
v 6.000000 0.000000 0.000000
v -1.300000 2.000000 2.000000
v -1.300000 2.000000 0.000000
v -1.300000 0.000000 0.000000
v -1.300000 -0.000000 2.000000
v -1.000000 2.000000 0.000000
v -1.000000 0.000000 0.000000
v -1.000000 2.000000 2.000000
v -1.000000 -0.000000 2.000000
v -1.300000 1.999999 6.000000
v -1.300000 1.999999 3.500001
v -1.300000 -0.000001 3.500001
v -1.300000 -0.000001 6.000000
v -1.000000 1.999999 3.500001
v -1.000000 -0.000001 3.500001
v -1.000000 1.999999 6.000000
v -1.000000 -0.000001 6.000000
v 2.700000 1.999999 4.500000
v 2.700000 2.000000 2.000000
v 2.700000 -0.000000 2.000000
v 2.700000 -0.000001 4.500000
v 3.000000 2.000000 2.000000
v 3.000000 -0.000000 2.000000
v 3.000000 1.999999 4.500000
v 3.000000 -0.000001 4.500000
v 2.700000 2.000000 2.300000
v 2.700000 2.000000 2.000000
v 2.700000 -0.000000 2.000000
v 2.700000 -0.000000 2.300000
v 8.000000 2.000000 2.000000
v 8.000000 -0.000000 2.000000
v 8.000000 2.000000 2.300000
v 8.000000 -0.000000 2.300000
vt 1.0000 0.0000
vt 0.0000 1.0000
vt 0.0000 0.0000
vt 1.0000 0.0000
vt 0.0000 1.0000
vt 0.0000 0.0000
vt 1.0000 0.0000
vt 0.0000 1.0000
vt 0.0000 0.0000
vt 1.0000 0.0000
vt 0.0000 1.0000
vt 0.0000 0.0000
vt 1.0000 0.0000
vt 0.0000 1.0000
vt 0.0000 0.0000
vt 1.0000 0.0000
vt 0.0000 0.0000
vt 0.0000 1.0000
vt 1.0000 0.0000
vt 0.0000 1.0000
vt 0.0000 0.0000
vt 1.0000 0.0000
vt 0.0000 1.0000
vt 0.0000 0.0000
vt 1.0000 0.0000
vt 0.0000 1.0000
vt 0.0000 0.0000
vt 1.0000 0.0000
vt 0.0000 1.0000
vt 0.0000 0.0000
vt 1.0000 0.0000
vt 0.0000 0.0000
vt 0.0000 1.0000
vt 1.0000 0.0000
vt 0.0000 1.0000
vt 0.0000 0.0000
vt 1.0000 0.0000
vt 0.0000 1.0000
vt 0.0000 0.0000
vt 1.0000 0.0000
vt 0.0000 1.0000
vt 0.0000 0.0000
vt 1.0000 0.0000
vt 0.0000 1.0000
vt 0.0000 0.0000
vt 1.0000 0.0000
vt 0.0000 0.0000
vt 0.0000 1.0000
vt 1.0000 0.0000
vt 0.0000 1.0000
vt 0.0000 0.0000
vt 1.0000 0.0000
vt 0.0000 1.0000
vt 0.0000 0.0000
vt 1.0000 0.0000
vt 0.0000 1.0000
vt 0.0000 0.0000
vt 1.0000 0.0000
vt 0.0000 1.0000
vt 0.0000 0.0000
vt 1.0000 0.0000
vt 0.0000 0.0000
vt 0.0000 1.0000
vt 1.0000 0.0000
vt 0.0000 1.0000
vt 0.0000 0.0000
vt 1.0000 0.0000
vt 0.0000 1.0000
vt 0.0000 0.0000
vt 1.0000 0.0000
vt 0.0000 1.0000
vt 0.0000 0.0000
vt 1.0000 0.0000
vt 0.0000 1.0000
vt 0.0000 0.0000
vt 1.0000 0.0000
vt 0.0000 0.0000
vt 0.0000 1.0000
vt 1.0000 0.0000
vt 0.0000 1.0000
vt 0.0000 0.0000
vt 1.0000 0.0000
vt 0.0000 1.0000
vt 0.0000 0.0000
vt 1.0000 0.0000
vt 0.0000 1.0000
vt 0.0000 0.0000
vt 1.0000 0.0000
vt 0.0000 1.0000
vt 0.0000 0.0000
vt 1.0000 0.0000
vt 0.0000 0.0000
vt 0.0000 1.0000
vt 0.0000 0.0000
vt 1.0000 1.0000
vt 0.0000 1.0000
vt 1.0000 0.0000
vt 0.0000 1.0000
vt 0.0000 0.0000
vt 1.0000 0.0000
vt 0.0000 1.0000
vt 0.0000 0.0000
vt 0.0000 0.0000
vt 1.0000 1.0000
vt 0.0000 1.0000
vt 1.0000 0.0000
vt 0.0000 0.0000
vt 1.0000 1.0000
vt 0.0000 1.0000
vt 1.0000 0.0000
vt 0.0000 1.0000
vt 0.0000 0.0000
vt 1.0000 0.0000
vt 0.0000 1.0000
vt 0.0000 0.0000
vt 1.0000 0.0000
vt 0.0000 1.0000
vt 0.0000 0.0000
vt 1.0000 0.0000
vt 0.0000 1.0000
vt 0.0000 0.0000
vt 1.0000 0.0000
vt 0.0000 0.0000
vt 0.0000 1.0000
vt 1.0000 0.0000
vt 0.0000 1.0000
vt 0.0000 0.0000
vt 1.0000 0.0000
vt 0.0000 1.0000
vt 0.0000 0.0000
vt 1.0000 0.0000
vt 0.0000 1.0000
vt 0.0000 0.0000
vt 1.0000 0.0000
vt 0.0000 1.0000
vt 0.0000 0.0000
vt 1.0000 0.0000
vt 0.0000 0.0000
vt 0.0000 1.0000
vt 1.0000 0.0000
vt 0.0000 1.0000
vt 0.0000 0.0000
vt 1.0000 0.0000
vt 0.0000 1.0000
vt 0.0000 0.0000
vt 1.0000 0.0000
vt 0.0000 1.0000
vt 0.0000 0.0000
vt 1.0000 0.0000
vt 0.0000 1.0000
vt 0.0000 0.0000
vt 1.0000 0.0000
vt 0.0000 0.0000
vt 0.0000 1.0000
vt 1.0000 0.0000
vt 0.0000 1.0000
vt 0.0000 0.0000
vt 1.0000 0.0000
vt 0.0000 1.0000
vt 0.0000 0.0000
vt 1.0000 0.0000
vt 0.0000 1.0000
vt 0.0000 0.0000
vt 1.0000 0.0000
vt 0.0000 1.0000
vt 0.0000 0.0000
vt 1.0000 0.0000
vt 0.0000 0.0000
vt 0.0000 1.0000
vt 1.0000 1.0000
vt 1.0000 1.0000
vt 1.0000 1.0000
vt 1.0000 1.0000
vt 1.0000 1.0000
vt 1.0000 1.0000
vt 1.0000 1.0000
vt 1.0000 1.0000
vt 1.0000 1.0000
vt 1.0000 1.0000
vt 1.0000 1.0000
vt 1.0000 1.0000
vt 1.0000 1.0000
vt 1.0000 1.0000
vt 1.0000 1.0000
vt 1.0000 1.0000
vt 1.0000 1.0000
vt 1.0000 1.0000
vt 1.0000 1.0000
vt 1.0000 1.0000
vt 1.0000 1.0000
vt 1.0000 1.0000
vt 1.0000 1.0000
vt 1.0000 1.0000
vt 1.0000 1.0000
vt 1.0000 1.0000
vt 1.0000 1.0000
vt 1.0000 1.0000
vt 1.0000 1.0000
vt 1.0000 1.0000
vt 1.0000 1.0000
vt 1.0000 0.0000
vt 1.0000 1.0000
vt 1.0000 1.0000
vt 1.0000 0.0000
vt 1.0000 1.0000
vt 1.0000 1.0000
vt 1.0000 1.0000
vt 1.0000 1.0000
vt 1.0000 1.0000
vt 1.0000 1.0000
vt 1.0000 1.0000
vt 1.0000 1.0000
vt 1.0000 1.0000
vt 1.0000 1.0000
vt 1.0000 1.0000
vt 1.0000 1.0000
vt 1.0000 1.0000
vt 1.0000 1.0000
vt 1.0000 1.0000
vt 1.0000 1.0000
vt 1.0000 1.0000
vt 1.0000 1.0000
vt 1.0000 1.0000
vt 1.0000 1.0000
vn 0.0000 1.0000 0.0000
vn -1.0000 0.0000 0.0000
vn 0.0000 0.0000 -1.0000
vn 1.0000 0.0000 0.0000
vn 0.0000 -0.0000 1.0000
vn 0.0000 -1.0000 -0.0000
vn -0.9990 -0.0154 -0.0420
vn -0.9997 -0.0230 -0.0052
vn -0.9997 -0.0240 0.0000
vn -0.0009 0.0039 -1.0000
vn -0.0056 0.0236 -0.9997
vn -0.0065 0.0276 -0.9996
vn 0.0014 -0.0058 1.0000
vn 0.0084 -0.0357 0.9993
vn -0.0116 0.9999 0.0035
vn -0.0154 0.9902 0.1386
vn -0.0154 0.9898 0.1417
vn -0.9988 -0.0145 -0.0464
vn 0.0098 -0.0418 0.9991
vn -0.0115 0.9999 0.0000
usemtl Material.001
s 1
f 2/1/1 4/2/1 1/3/1
f 6/4/2 8/5/2 5/6/2
f 9/7/3 7/8/3 6/9/3
f 11/10/4 10/11/4 9/12/4
f 5/13/5 12/14/5 11/15/5
f 7/16/6 12/14/6 8/17/6
f 9/7/1 5/18/1 11/15/1
f 14/19/2 16/20/2 13/21/2
f 17/22/3 15/23/3 14/24/3
f 19/25/4 18/26/4 17/27/4
f 13/28/5 20/29/5 19/30/5
f 15/31/6 20/29/6 16/32/6
f 17/22/1 13/33/1 19/30/1
f 22/34/2 24/35/2 21/36/2
f 25/37/3 23/38/3 22/39/3
f 27/40/4 26/41/4 25/42/4
f 21/43/5 28/44/5 27/45/5
f 23/46/6 28/44/6 24/47/6
f 25/37/1 21/48/1 27/45/1
f 30/49/2 32/50/2 29/51/2
f 33/52/3 31/53/3 30/54/3
f 35/55/4 34/56/4 33/57/4
f 29/58/5 36/59/5 35/60/5
f 31/61/6 36/59/6 32/62/6
f 33/52/1 29/63/1 35/60/1
f 38/64/2 40/65/2 37/66/2
f 41/67/3 39/68/3 38/69/3
f 43/70/4 42/71/4 41/72/4
f 37/73/5 44/74/5 43/75/5
f 39/76/6 44/74/6 40/77/6
f 41/67/1 37/78/1 43/75/1
f 46/79/2 48/80/2 45/81/2
f 49/82/3 47/83/3 46/84/3
f 51/85/4 50/86/4 49/87/4
f 45/88/5 52/89/5 51/90/5
f 47/91/6 52/89/6 48/92/6
f 49/82/1 45/93/1 51/90/1
f 53/94/7 55/95/8 56/96/9
f 57/97/10 55/98/11 54/99/12
f 59/100/4 58/101/4 57/102/4
f 59/103/13 56/104/14 60/105/5
f 55/106/6 60/105/6 56/107/6
f 59/103/15 54/108/16 53/109/17
f 62/110/2 64/111/2 61/112/2
f 65/113/3 63/114/3 62/115/3
f 67/116/4 66/117/4 65/118/4
f 61/119/5 68/120/5 67/121/5
f 63/122/6 68/120/6 64/123/6
f 65/113/1 61/124/1 67/121/1
f 70/125/2 72/126/2 69/127/2
f 73/128/3 71/129/3 70/130/3
f 75/131/4 74/132/4 73/133/4
f 69/134/5 76/135/5 75/136/5
f 71/137/6 76/135/6 72/138/6
f 73/128/1 69/139/1 75/136/1
f 78/140/2 80/141/2 77/142/2
f 81/143/3 79/144/3 78/145/3
f 83/146/4 82/147/4 81/148/4
f 77/149/5 84/150/5 83/151/5
f 79/152/6 84/150/6 80/153/6
f 81/143/1 77/154/1 83/151/1
f 86/155/2 88/156/2 85/157/2
f 89/158/3 87/159/3 86/160/3
f 91/161/4 90/162/4 89/163/4
f 85/164/5 92/165/5 91/166/5
f 87/167/6 92/165/6 88/168/6
f 89/158/1 85/169/1 91/166/1
f 2/1/1 3/170/1 4/2/1
f 6/4/2 7/171/2 8/5/2
f 9/7/3 10/172/3 7/8/3
f 11/10/4 12/173/4 10/11/4
f 5/13/5 8/174/5 12/14/5
f 7/16/6 10/172/6 12/14/6
f 9/7/1 6/175/1 5/18/1
f 14/19/2 15/176/2 16/20/2
f 17/22/3 18/177/3 15/23/3
f 19/25/4 20/178/4 18/26/4
f 13/28/5 16/179/5 20/29/5
f 15/31/6 18/177/6 20/29/6
f 17/22/1 14/180/1 13/33/1
f 22/34/2 23/181/2 24/35/2
f 25/37/3 26/182/3 23/38/3
f 27/40/4 28/183/4 26/41/4
f 21/43/5 24/184/5 28/44/5
f 23/46/6 26/182/6 28/44/6
f 25/37/1 22/185/1 21/48/1
f 30/49/2 31/186/2 32/50/2
f 33/52/3 34/187/3 31/53/3
f 35/55/4 36/188/4 34/56/4
f 29/58/5 32/189/5 36/59/5
f 31/61/6 34/187/6 36/59/6
f 33/52/1 30/190/1 29/63/1
f 38/64/2 39/191/2 40/65/2
f 41/67/3 42/192/3 39/68/3
f 43/70/4 44/193/4 42/71/4
f 37/73/5 40/194/5 44/74/5
f 39/76/6 42/192/6 44/74/6
f 41/67/1 38/195/1 37/78/1
f 46/79/2 47/196/2 48/80/2
f 49/82/3 50/197/3 47/83/3
f 51/85/4 52/198/4 50/86/4
f 45/88/5 48/199/5 52/89/5
f 47/91/6 50/197/6 52/89/6
f 49/82/1 46/200/1 45/93/1
f 53/94/7 54/201/18 55/95/8
f 57/97/10 58/202/3 55/98/11
f 59/100/4 60/203/4 58/101/4
f 59/103/13 53/204/19 56/104/14
f 55/106/6 58/202/6 60/105/6
f 59/103/15 57/97/20 54/108/16
f 62/110/2 63/205/2 64/111/2
f 65/113/3 66/206/3 63/114/3
f 67/116/4 68/207/4 66/117/4
f 61/119/5 64/208/5 68/120/5
f 63/122/6 66/206/6 68/120/6
f 65/113/1 62/209/1 61/124/1
f 70/125/2 71/210/2 72/126/2
f 73/128/3 74/211/3 71/129/3
f 75/131/4 76/212/4 74/132/4
f 69/134/5 72/213/5 76/135/5
f 71/137/6 74/211/6 76/135/6
f 73/128/1 70/214/1 69/139/1
f 78/140/2 79/215/2 80/141/2
f 81/143/3 82/216/3 79/144/3
f 83/146/4 84/217/4 82/147/4
f 77/149/5 80/218/5 84/150/5
f 79/152/6 82/216/6 84/150/6
f 81/143/1 78/219/1 77/154/1
f 86/155/2 87/220/2 88/156/2
f 89/158/3 90/221/3 87/159/3
f 91/161/4 92/222/4 90/162/4
f 85/164/5 88/223/5 92/165/5
f 87/167/6 90/221/6 92/165/6
f 89/158/1 86/224/1 85/169/1
